<mxfile host="Electron" agent="Mozilla/5.0 (Windows NT 10.0; Win64; x64) AppleWebKit/537.36 (KHTML, like Gecko) draw.io/24.7.17 Chrome/128.0.6613.36 Electron/32.0.1 Safari/537.36" version="24.7.17">
  <diagram name="Page-1" id="Y3Z-4fJAVwetFIszq6zZ">
    <mxGraphModel dx="1021" dy="1675" grid="1" gridSize="10" guides="1" tooltips="1" connect="1" arrows="1" fold="1" page="1" pageScale="1" pageWidth="827" pageHeight="1169" math="0" shadow="0">
      <root>
        <mxCell id="0" />
        <mxCell id="1" parent="0" />
        <mxCell id="HQkyOGOHkO0ZdwTNHG3f-1" value="&lt;div&gt;&lt;br&gt;&lt;/div&gt;" style="text;html=1;align=center;verticalAlign=middle;resizable=0;points=[];autosize=1;strokeColor=none;fillColor=none;" parent="1" vertex="1">
          <mxGeometry x="20" y="98" width="20" height="30" as="geometry" />
        </mxCell>
        <mxCell id="HQkyOGOHkO0ZdwTNHG3f-2" value="&lt;span style=&quot;text-wrap: nowrap;&quot;&gt;Réception de la vaisselle et des ustensiles sales&lt;/span&gt;" style="rounded=1;whiteSpace=wrap;html=1;fillColor=#A9C4EB;" parent="1" vertex="1">
          <mxGeometry x="414" y="-10" width="286" height="60" as="geometry" />
        </mxCell>
        <mxCell id="HQkyOGOHkO0ZdwTNHG3f-3" value="&lt;span style=&quot;text-wrap: nowrap;&quot;&gt;Tri et organisation du matériel à laver&lt;/span&gt;" style="rounded=1;whiteSpace=wrap;html=1;fillColor=#A9C4EB;" parent="1" vertex="1">
          <mxGeometry x="430" y="80" width="240" height="40" as="geometry" />
        </mxCell>
        <mxCell id="HQkyOGOHkO0ZdwTNHG3f-4" value="&lt;span style=&quot;text-wrap: nowrap;&quot;&gt;Lavage de la vaisselle et des ustensiles&lt;/span&gt;" style="rounded=1;whiteSpace=wrap;html=1;fillColor=#A9C4EB;" parent="1" vertex="1">
          <mxGeometry x="430" y="150" width="240" height="40" as="geometry" />
        </mxCell>
        <mxCell id="HQkyOGOHkO0ZdwTNHG3f-5" value="&lt;span style=&quot;text-wrap: nowrap;&quot;&gt;Les locaux sont-ils propres ?&lt;/span&gt;" style="rounded=1;whiteSpace=wrap;html=1;fillColor=#A9C4EB;" parent="1" vertex="1">
          <mxGeometry x="452" y="220" width="210" height="40" as="geometry" />
        </mxCell>
        <mxCell id="HQkyOGOHkO0ZdwTNHG3f-6" value="" style="endArrow=none;html=1;rounded=0;" parent="1" edge="1">
          <mxGeometry width="50" height="50" relative="1" as="geometry">
            <mxPoint x="560" y="313.5" as="sourcePoint" />
            <mxPoint x="720" y="314" as="targetPoint" />
          </mxGeometry>
        </mxCell>
        <mxCell id="HQkyOGOHkO0ZdwTNHG3f-7" value="" style="endArrow=none;html=1;rounded=0;" parent="1" edge="1">
          <mxGeometry width="50" height="50" relative="1" as="geometry">
            <mxPoint x="390" y="314" as="sourcePoint" />
            <mxPoint x="540" y="313.5" as="targetPoint" />
          </mxGeometry>
        </mxCell>
        <mxCell id="HQkyOGOHkO0ZdwTNHG3f-8" value="Entretien des locaux terminé" style="rounded=1;whiteSpace=wrap;html=1;fillColor=#A9C4EB;" parent="1" vertex="1">
          <mxGeometry x="340" y="382" width="98" height="42" as="geometry" />
        </mxCell>
        <mxCell id="HQkyOGOHkO0ZdwTNHG3f-9" value="Nettoyage des locaux et surfaces nécessaire" style="rounded=1;whiteSpace=wrap;html=1;fillColor=#A9C4EB;" parent="1" vertex="1">
          <mxGeometry x="650" y="382" width="120" height="42" as="geometry" />
        </mxCell>
        <mxCell id="HQkyOGOHkO0ZdwTNHG3f-10" value="" style="endArrow=classic;html=1;rounded=0;entryX=0.5;entryY=0;entryDx=0;entryDy=0;" parent="1" target="HQkyOGOHkO0ZdwTNHG3f-8" edge="1">
          <mxGeometry width="50" height="50" relative="1" as="geometry">
            <mxPoint x="389" y="310" as="sourcePoint" />
            <mxPoint x="440" y="190" as="targetPoint" />
          </mxGeometry>
        </mxCell>
        <mxCell id="HQkyOGOHkO0ZdwTNHG3f-11" value="" style="endArrow=classic;html=1;rounded=0;entryX=0.575;entryY=0.06;entryDx=0;entryDy=0;entryPerimeter=0;" parent="1" target="HQkyOGOHkO0ZdwTNHG3f-9" edge="1">
          <mxGeometry width="50" height="50" relative="1" as="geometry">
            <mxPoint x="719" y="310" as="sourcePoint" />
            <mxPoint x="770" y="190" as="targetPoint" />
          </mxGeometry>
        </mxCell>
        <mxCell id="HQkyOGOHkO0ZdwTNHG3f-12" value="" style="endArrow=classic;html=1;rounded=0;" parent="1" edge="1">
          <mxGeometry width="50" height="50" relative="1" as="geometry">
            <mxPoint x="389" y="430" as="sourcePoint" />
            <mxPoint x="388.5" y="470" as="targetPoint" />
          </mxGeometry>
        </mxCell>
        <mxCell id="HQkyOGOHkO0ZdwTNHG3f-13" value="Transmission du materiel propre" style="rounded=1;whiteSpace=wrap;html=1;fillColor=#A9C4EB;" parent="1" vertex="1">
          <mxGeometry x="340" y="470" width="108" height="40" as="geometry" />
        </mxCell>
        <mxCell id="HQkyOGOHkO0ZdwTNHG3f-14" value="" style="endArrow=classic;html=1;rounded=0;entryX=0.467;entryY=0.025;entryDx=0;entryDy=0;entryPerimeter=0;" parent="1" target="HQkyOGOHkO0ZdwTNHG3f-5" edge="1">
          <mxGeometry width="50" height="50" relative="1" as="geometry">
            <mxPoint x="550" y="190" as="sourcePoint" />
            <mxPoint x="600" y="140" as="targetPoint" />
          </mxGeometry>
        </mxCell>
        <mxCell id="HQkyOGOHkO0ZdwTNHG3f-15" value="" style="endArrow=classic;html=1;rounded=0;" parent="1" target="HQkyOGOHkO0ZdwTNHG3f-4" edge="1">
          <mxGeometry width="50" height="50" relative="1" as="geometry">
            <mxPoint x="550" y="120" as="sourcePoint" />
            <mxPoint x="600" y="70" as="targetPoint" />
          </mxGeometry>
        </mxCell>
        <mxCell id="HQkyOGOHkO0ZdwTNHG3f-16" value="" style="endArrow=classic;html=1;rounded=0;entryX=0.5;entryY=0;entryDx=0;entryDy=0;" parent="1" target="HQkyOGOHkO0ZdwTNHG3f-3" edge="1">
          <mxGeometry width="50" height="50" relative="1" as="geometry">
            <mxPoint x="550" y="50" as="sourcePoint" />
            <mxPoint x="600" as="targetPoint" />
          </mxGeometry>
        </mxCell>
        <mxCell id="HQkyOGOHkO0ZdwTNHG3f-17" value="" style="ellipse;whiteSpace=wrap;html=1;aspect=fixed;fillColor=#000000;" parent="1" vertex="1">
          <mxGeometry x="547" y="-90" width="20" height="20" as="geometry" />
        </mxCell>
        <mxCell id="HQkyOGOHkO0ZdwTNHG3f-18" value="" style="endArrow=classic;html=1;rounded=0;entryX=0.5;entryY=0;entryDx=0;entryDy=0;" parent="1" target="HQkyOGOHkO0ZdwTNHG3f-2" edge="1">
          <mxGeometry width="50" height="50" relative="1" as="geometry">
            <mxPoint x="557" y="-70" as="sourcePoint" />
            <mxPoint x="610" y="-120" as="targetPoint" />
            <Array as="points">
              <mxPoint x="557" y="-50" />
            </Array>
          </mxGeometry>
        </mxCell>
        <mxCell id="HQkyOGOHkO0ZdwTNHG3f-20" value="" style="endArrow=classic;html=1;rounded=0;" parent="1" edge="1">
          <mxGeometry width="50" height="50" relative="1" as="geometry">
            <mxPoint x="388.5" y="510" as="sourcePoint" />
            <mxPoint x="388.5" y="550" as="targetPoint" />
          </mxGeometry>
        </mxCell>
        <mxCell id="HQkyOGOHkO0ZdwTNHG3f-21" value="" style="ellipse;html=1;shape=endState;fillColor=#000000;strokeColor=#ff0000;" parent="1" vertex="1">
          <mxGeometry x="379" y="550" width="20" height="20" as="geometry" />
        </mxCell>
        <mxCell id="HQkyOGOHkO0ZdwTNHG3f-23" value="Oui" style="text;html=1;align=center;verticalAlign=middle;resizable=0;points=[];autosize=1;strokeColor=none;fillColor=none;" parent="1" vertex="1">
          <mxGeometry x="340" y="320" width="40" height="30" as="geometry" />
        </mxCell>
        <mxCell id="HQkyOGOHkO0ZdwTNHG3f-24" value="Non" style="text;html=1;align=center;verticalAlign=middle;resizable=0;points=[];autosize=1;strokeColor=none;fillColor=none;" parent="1" vertex="1">
          <mxGeometry x="720" y="328" width="50" height="30" as="geometry" />
        </mxCell>
        <mxCell id="TfUxGbh82LSkthN3wgE9-3" value="" style="endArrow=classic;html=1;rounded=0;entryX=0.5;entryY=0;entryDx=0;entryDy=0;" parent="1" target="TfUxGbh82LSkthN3wgE9-4" edge="1">
          <mxGeometry width="50" height="50" relative="1" as="geometry">
            <mxPoint x="550" y="260" as="sourcePoint" />
            <mxPoint x="550" y="296" as="targetPoint" />
          </mxGeometry>
        </mxCell>
        <mxCell id="TfUxGbh82LSkthN3wgE9-4" value="" style="rhombus;whiteSpace=wrap;html=1;" parent="1" vertex="1">
          <mxGeometry x="540" y="300" width="20" height="28" as="geometry" />
        </mxCell>
      </root>
    </mxGraphModel>
  </diagram>
</mxfile>
